<?xml version="1.0" encoding="UTF-8" standalone="no"?>
<!-- Created with Inkscape (http://www.inkscape.org/) -->

<svg
   width="100"
   height="100"
   viewBox="0 0 100 100"
   version="1.1"
   id="svg1"
   inkscape:version="1.4.2 (ebf0e940d0, 2025-05-08)"
   sodipodi:docname="favicon.svg"
   xmlns:inkscape="http://www.inkscape.org/namespaces/inkscape"
   xmlns:sodipodi="http://sodipodi.sourceforge.net/DTD/sodipodi-0.dtd"
   xmlns="http://www.w3.org/2000/svg"
   xmlns:svg="http://www.w3.org/2000/svg">
  <sodipodi:namedview
     id="namedview1"
     borderopacity="1.0"
     inkscape:showpageshadow="2"
     inkscape:pageopacity="0.0"
     inkscape:pagecheckerboard="true"
     inkscape:deskcolor="#d1d1d1"
     inkscape:document-units="px"
     inkscape:zoom="3.2664207"
     inkscape:cx="34.135223"
     inkscape:cy="-0.61229099"
     inkscape:window-width="1680"
     inkscape:window-height="1015"
     inkscape:window-x="1922"
     inkscape:window-y="31"
     inkscape:window-maximized="0"
     inkscape:current-layer="layer1"
     pagecolor="#ffffff"
     bordercolor="#666666"
     inkscape:antialias-rendering="true" />
  <defs
     id="defs1">
    <rect
       x="718.98468"
       y="327.63858"
       width="341.29019"
       height="263.93109"
       id="rect1" />
  </defs>
  <g
     inkscape:label="Layer 1"
     inkscape:groupmode="layer"
     id="layer1"
     transform="translate(-680.34557,-293.61647)">
    <rect
       style="color:#000000;display:inline;overflow:visible;visibility:visible;fill:#1976d2;fill-opacity:1;fill-rule:evenodd;stroke:none;stroke-width:2.02496;stroke-linecap:butt;stroke-linejoin:miter;stroke-miterlimit:4;stroke-dasharray:none;stroke-dashoffset:0;stroke-opacity:1;marker:none;enable-background:accumulate"
       id="rect2"
       width="98.884964"
       height="99.803436"
       x="681.26398"
       y="293.92261"
       rx="10.125392"
       ry="10.124224" />
    <path
       d="m 717.18473,346.38459 q 1.44174,13.44541 11.22467,13.44541 9.474,0 14.10806,-13.57353 v 1.40861 q 0,5.76237 2.05959,8.83563 2.16255,3.07325 5.45783,3.07325 7.82636,0 11.5336,-10.24423 1.13279,-3.20128 1.54469,-5.63424 0.51514,-2.56108 0.51514,-3.71355 0,-2.30495 -1.33877,-2.30495 -0.61788,0 -1.02977,0.89605 -0.41167,0.89604 -0.82385,2.30495 -0.30894,1.28058 -0.82378,3.07326 -0.41166,1.66474 -1.3387,3.3294 -2.26558,4.35374 -5.8698,4.35374 -2.05959,0 -3.39829,-1.79277 -1.23574,-1.92069 -1.23574,-4.99395 0,-1.66475 0.20621,-3.71356 0.30892,-2.0488 0.82378,-4.86602 l 5.76683,-33.16545 h -7.51743 l -5.56086,31.88497 q -2.98641,16.7748 -12.97533,16.7748 -3.81019,0 -5.97273,-2.81713 -2.05962,-2.81711 -2.05962,-8.06729 0,-3.20129 0.61788,-7.04286 l 5.25193,-30.73249 h -7.4144 l -5.45791,32.1411 q -1.54468,9.09165 -3.08936,16.39065 -1.54468,7.17097 -2.6774,12.54909 -1.23574,5.50631 -1.95664,9.21977 -0.82378,3.71356 -0.82378,5.63434 0,2.56098 1.13271,3.9696 1.02983,1.53662 2.88338,1.53662 2.16256,0 3.19239,-2.43297 1.02977,-2.30494 1.64764,-7.17096 0.61788,-4.73791 1.23575,-11.90888 0.61787,-7.04286 2.16255,-16.64671 z"
       id="text1"
       style="font-size:13.3333px;line-height:125%;font-family:'Apple Garamond';-inkscape-font-specification:'Apple Garamond, Normal';white-space:pre;stroke:#3282d2;stroke-width:8.6125;paint-order:stroke fill markers;stroke-opacity:1;fill:#ffffff;fill-opacity:1"
       aria-label="μ" />
  </g>
</svg>
